<?xml version="1.0" ?><!DOCTYPE svg  PUBLIC '-//W3C//DTD SVG 1.1//EN'  'http://www.w3.org/Graphics/SVG/1.1/DTD/svg11.dtd'><svg enable-background="new 0 0 512 512" height="512px" id="Layer_1" version="1.1" viewBox="0 0 512 512" width="512px" xml:space="preserve" xmlns="http://www.w3.org/2000/svg" xmlns:xlink="http://www.w3.org/1999/xlink"><g><path d="M511.36,255.68c0,141.214-114.473,255.687-255.677,255.687C114.473,511.367,0,396.895,0,255.68   C0,114.476,114.473,0,255.684,0C396.888,0,511.36,114.476,511.36,255.68z" fill="#EB7B1D"/><path d="M151.681,325.802c22.033,0,39.885,17.878,39.885,39.898c0,22.039-17.852,39.882-39.885,39.882   s-39.885-17.843-39.885-39.882C111.796,343.68,129.647,325.802,151.681,325.802z" fill="#FFFFFF"/><path d="M111.836,265.13c37.387,0,72.514,14.628,98.939,41.15c26.44,26.575,40.992,61.951,40.992,99.609h57.584   c0-109.367-88.597-198.361-197.516-198.361V265.13z" fill="#FFFFFF"/><path d="M111.915,163.025c133.206,0,241.603,108.989,241.603,242.914h57.57   c0-165.702-134.199-300.508-299.173-300.508V163.025z" fill="#FFFFFF"/></g></svg>